# xmcd
#
# Track frame offsets:
#	150
#	16304
#	31116
#	54044
#	73142
#	96473
#	116063
#	132200
#	144458
#	160472
#	179331
#	196846
#	207992
#	224651
#	240685
#	253981
#	269043
#	283352
#	301294
#	325433
#
# Disc length: 4664 seconds
#
# Revision: 1
# Processed by: cddbd v1.5.1PL2 Copyright (c) Steve Scherf et al.
# Submitted via: audiograbber 1.83.01
#
DISCID=41123614
DTITLE=Various Artist - Don't Mess with Texas Music, Vol. 3
DYEAR=2005
DGENRE=Other
TTITLE0=Lee Roy Parnell (with Delbert McClinton) - South by Southwest
TTITLE1=Dale Watson - Way Down Texas Way
TTITLE2=Nuna Persson and Nathan Larson - The Bluest Eyes in Texas
TTITLE3=Jimmy LaFave - Austin After Midnight
TTITLE4=Chris Rea - Texas
TTITLE5=Jerry Jeff Walker - Texas on my Mind
TTITLE6=Junior Brown - Long Walk Back to San Antone
TTITLE7=Steve Earle - Home to Houston
TTITLE8=Toni Price - Rusty Old Red River
TTITLE9=Patricia Vonne - Joe's Gone Ridin'
TTITLE10=Willie Nelson - Texas
TTITLE11=Robert Earl Keen - Amarillo Highway
TTITLE12=Shelley King - Texas Blue Moon
TTITLE13=Johnny Copeland - Houston
TTITLE14=Caroline Herring - Texas Two Step
TTITLE15=Texas Gypsies - Texas Gypsy Theme
TTITLE16=Reneé Austin - Little Bit of Texas
TTITLE17=Nanci Griffith - Lone Star State of Mind
TTITLE18=Chip Taylor and Carrie Rodriguez - Laredo
TTITLE19=James McMurtry - Levelland
EXTD=
EXTT0=
EXTT1=
EXTT2=
EXTT3=
EXTT4=
EXTT5=
EXTT6=
EXTT7=
EXTT8=
EXTT9=
EXTT10=
EXTT11=
EXTT12=
EXTT13=
EXTT14=
EXTT15=
EXTT16=
EXTT17=
EXTT18=
EXTT19=
PLAYORDER=
